<svg xmlns="http://www.w3.org/2000/svg"  viewBox="0 0 48 48" width="48px" height="48px" baseProfile="basic"><path fill="#8a4581" d="M12.429,14.27c1.241,4.365,2.371,8.037,4.174,12.201c1.445-3.853,3.646-8.113,4.495-12.683 c2.89,0.161,5.94-0.161,8.669,0.161c-5.311,9.534-8.323,19.467-12.522,29.54c-2.64-0.352-5.845-0.339-8.509-0.321 c1.551-2.069,3.987-6.873,4.014-7.224c0.038-0.511-5.998-12.415-7.78-17.621c-0.489-1.43-1.049-2.768-1.049-4.534 C6.971,13.307,9.54,13.468,12.429,14.27z"/><path fill="#8a4581" d="M27.14,29.313c-1.231,1.123-1.858,2.935-1.39,4.534c0.138,0.472,0.365,0.917,0.665,1.307 c0.184,0.239,0.395,0.456,0.623,0.653c1.42,1.229,3.55,1.593,5.276,0.854c1.726-0.739,2.942-2.568,2.902-4.445 C35.123,27.872,30.026,26.681,27.14,29.313z"/><path fill="#8a4581" d="M37.033,25.659c2.603-6.48,5.318-12.916,8.144-19.302c-1.796-0.297-3.642-0.291-5.436,0.018 c-0.709,0.122-1.503,0.275-2.095-0.133c-0.849,0.029-1.397,0.887-1.765,1.653c-2.052,4.271-3.371,8.858-5.04,13.283 c-0.468,1.241-1.481,3.314-0.156,4.392C31.277,26.052,36.814,26.204,37.033,25.659z"/><path fill="#1d1d1b" d="M17.56,44.036l-0.38-0.051c-2.67-0.356-6.006-0.336-8.439-0.317l-1.008,0.007l0.605-0.807 c1.448-1.932,3.618-6.196,3.897-6.939c-0.166-0.491-1.093-2.46-2.071-4.539c-1.93-4.1-4.574-9.715-5.667-12.906L4.31,17.948 c-0.438-1.245-0.89-2.532-0.89-4.16v-0.427l0.422-0.066c3.103-0.491,5.711-0.342,8.721,0.494l0.271,0.075l0.077,0.27 c1.209,4.25,2.23,7.514,3.673,11.008c0.291-0.728,0.601-1.467,0.922-2.235c1.23-2.943,2.503-5.987,3.102-9.209l0.081-0.432 l0.439,0.024c1.222,0.067,2.5,0.048,3.736,0.028c1.659-0.025,3.374-0.053,4.964,0.135l0.742,0.087l-0.363,0.652 c-3.613,6.486-6.109,13.032-8.752,19.963c-1.187,3.113-2.414,6.332-3.746,9.526L17.56,44.036z M10.493,42.66 c2.044,0,4.392,0.043,6.437,0.286c1.27-3.065,2.448-6.155,3.588-9.146c2.566-6.729,4.994-13.097,8.444-19.425 c-1.3-0.1-2.66-0.079-4.085-0.056c-1.109,0.018-2.252,0.034-3.371-0.009c-0.646,3.165-1.882,6.121-3.079,8.983 c-0.488,1.168-0.95,2.271-1.356,3.355l-0.435,1.16l-0.492-1.137c-1.694-3.913-2.803-7.382-4.119-11.991 c-2.61-0.693-4.92-0.833-7.594-0.461c0.07,1.259,0.436,2.302,0.821,3.399l0.189,0.543c1.074,3.139,3.705,8.725,5.625,12.804 c2.042,4.338,2.202,4.735,2.181,5.016c-0.039,0.515-2.073,4.431-3.552,6.682C9.957,42.661,10.222,42.66,10.493,42.66z"/><path fill="#1d1d1b" d="M30.408,37.542c-1.331,0-2.672-0.47-3.697-1.358c-0.264-0.228-0.497-0.472-0.692-0.727 c-0.339-0.439-0.591-0.935-0.749-1.47c-0.504-1.722,0.112-3.749,1.533-5.044c1.646-1.502,4.085-1.938,6.072-1.087 c1.762,0.755,2.797,2.341,2.841,4.349c0.044,2.067-1.273,4.089-3.205,4.915C31.848,37.404,31.129,37.542,30.408,37.542z M30.733,28.423c-1.171,0-2.355,0.438-3.256,1.259l0,0c-1.145,1.043-1.646,2.661-1.247,4.023c0.121,0.41,0.322,0.805,0.582,1.142 c0.155,0.202,0.341,0.397,0.554,0.581c1.297,1.124,3.206,1.433,4.752,0.772c1.566-0.67,2.635-2.305,2.599-3.975 c-0.034-1.599-0.849-2.857-2.235-3.452C31.929,28.538,31.333,28.423,30.733,28.423z"/><path fill="#1d1d1b" d="M34.458,26.5c-1.689,0-3.635-0.174-4.087-0.542c-1.477-1.201-0.677-3.227-0.148-4.568l0.151-0.388 c0.542-1.436,1.046-2.889,1.551-4.342c1.037-2.986,2.109-6.074,3.506-8.981c0.39-0.812,1.043-1.897,2.198-1.937l0.165-0.006 l0.136,0.093c0.407,0.281,1.047,0.17,1.666,0.063c1.919-0.332,3.804-0.339,5.664-0.03l0.637,0.105l-0.261,0.59 c-2.812,6.356-5.55,12.845-8.137,19.286l0,0c-0.122,0.302-0.442,0.417-0.673,0.476C36.368,26.439,35.458,26.5,34.458,26.5z M37.533,6.759c-0.413,0.089-0.807,0.534-1.201,1.354c-1.372,2.855-2.435,5.916-3.463,8.875c-0.507,1.462-1.015,2.923-1.56,4.367 l-0.157,0.403c-0.559,1.416-0.991,2.743-0.151,3.425c0.585,0.332,4.794,0.448,5.619,0.162c2.494-6.207,5.128-12.456,7.833-18.587 c-1.542-0.191-3.094-0.154-4.627,0.111C39.084,6.997,38.243,7.142,37.533,6.759z"/></svg>